<mxfile host="www.draw.io" modified="2019-12-20T19:35:33.965Z" agent="Mozilla/5.0 (X11; Linux x86_64) AppleWebKit/537.36 (KHTML, like Gecko) Chrome/78.0.3904.97 Safari/537.36" etag="KrI8lgeBntv7i1b4REqV" version="12.4.3" type="github" pages="1">
  <diagram name="Page-1" id="74e2e168-ea6b-b213-b513-2b3c1d86103e">
    <mxGraphModel dx="1021" dy="544" grid="1" gridSize="10" guides="1" tooltips="1" connect="1" arrows="1" fold="1" page="1" pageScale="1" pageWidth="1100" pageHeight="850" background="#ffffff" math="0" shadow="0">
      <root>
        <mxCell id="0"/>
        <mxCell id="1" parent="0"/>
        <mxCell id="77e6c97f196da883-1" value="RESTful API" style="swimlane;html=1;childLayout=stackLayout;startSize=20;rounded=0;shadow=0;labelBackgroundColor=none;strokeWidth=1;fontFamily=Verdana;fontSize=8;align=center;" parent="1" vertex="1">
          <mxGeometry x="70" y="20" width="780" height="800" as="geometry"/>
        </mxCell>
        <mxCell id="77e6c97f196da883-2" value="Client" style="swimlane;html=1;startSize=20;" parent="77e6c97f196da883-1" vertex="1">
          <mxGeometry y="20" width="170" height="780" as="geometry"/>
        </mxCell>
        <mxCell id="77e6c97f196da883-9" value="&lt;font style=&quot;font-size: 11px&quot;&gt;ERROR 403&lt;/font&gt;" style="rounded=1;whiteSpace=wrap;html=1;shadow=0;labelBackgroundColor=none;strokeWidth=1;fontFamily=Verdana;fontSize=8;align=center;" parent="77e6c97f196da883-2" vertex="1">
          <mxGeometry x="30" y="155" width="100" height="60" as="geometry"/>
        </mxCell>
        <mxCell id="EyN7NpSjTXpp6PNC-VhJ-32" style="edgeStyle=orthogonalEdgeStyle;rounded=0;orthogonalLoop=1;jettySize=auto;html=1;exitX=0.5;exitY=0;exitDx=0;exitDy=0;entryX=0.5;entryY=1;entryDx=0;entryDy=0;" edge="1" parent="77e6c97f196da883-2" source="77e6c97f196da883-10" target="EyN7NpSjTXpp6PNC-VhJ-31">
          <mxGeometry relative="1" as="geometry"/>
        </mxCell>
        <mxCell id="77e6c97f196da883-10" value="&lt;font style=&quot;font-size: 11px&quot;&gt;Success Code 200&lt;/font&gt;" style="rounded=1;whiteSpace=wrap;html=1;shadow=0;labelBackgroundColor=none;strokeWidth=1;fontFamily=Verdana;fontSize=8;align=center;" parent="77e6c97f196da883-2" vertex="1">
          <mxGeometry x="30" y="575" width="100" height="60" as="geometry"/>
        </mxCell>
        <mxCell id="77e6c97f196da883-12" value="&lt;font style=&quot;font-size: 11px&quot;&gt;ERROR 404&lt;/font&gt;" style="rounded=1;whiteSpace=wrap;html=1;shadow=0;labelBackgroundColor=none;strokeWidth=1;fontFamily=Verdana;fontSize=8;align=center;" parent="77e6c97f196da883-2" vertex="1">
          <mxGeometry x="30" y="260" width="100" height="60" as="geometry"/>
        </mxCell>
        <mxCell id="EyN7NpSjTXpp6PNC-VhJ-2" value="Request" style="ellipse;whiteSpace=wrap;html=1;" vertex="1" parent="77e6c97f196da883-2">
          <mxGeometry x="30" y="60" width="100" height="60" as="geometry"/>
        </mxCell>
        <mxCell id="EyN7NpSjTXpp6PNC-VhJ-31" value="&lt;font style=&quot;font-size: 12px&quot;&gt;Request Completed&lt;/font&gt;" style="rounded=1;whiteSpace=wrap;html=1;shadow=0;labelBackgroundColor=none;strokeWidth=1;fontFamily=Verdana;fontSize=8;align=center;" vertex="1" parent="77e6c97f196da883-2">
          <mxGeometry x="30" y="430" width="100" height="60" as="geometry"/>
        </mxCell>
        <mxCell id="77e6c97f196da883-26" style="edgeStyle=orthogonalEdgeStyle;rounded=1;html=1;labelBackgroundColor=none;startArrow=none;startFill=0;startSize=5;endArrow=classicThin;endFill=1;endSize=5;jettySize=auto;orthogonalLoop=1;strokeWidth=1;fontFamily=Verdana;fontSize=8" parent="77e6c97f196da883-1" target="EyN7NpSjTXpp6PNC-VhJ-1" edge="1">
          <mxGeometry relative="1" as="geometry">
            <mxPoint x="130" y="110" as="sourcePoint"/>
            <mxPoint x="190" y="110" as="targetPoint"/>
          </mxGeometry>
        </mxCell>
        <mxCell id="77e6c97f196da883-3" value="Authorization" style="swimlane;html=1;startSize=20;" parent="77e6c97f196da883-1" vertex="1">
          <mxGeometry x="170" y="20" width="160" height="780" as="geometry"/>
        </mxCell>
        <mxCell id="EyN7NpSjTXpp6PNC-VhJ-13" style="edgeStyle=orthogonalEdgeStyle;rounded=0;orthogonalLoop=1;jettySize=auto;html=1;exitX=0.5;exitY=1;exitDx=0;exitDy=0;entryX=0.5;entryY=0;entryDx=0;entryDy=0;" edge="1" parent="77e6c97f196da883-3" source="EyN7NpSjTXpp6PNC-VhJ-1" target="EyN7NpSjTXpp6PNC-VhJ-4">
          <mxGeometry relative="1" as="geometry"/>
        </mxCell>
        <mxCell id="EyN7NpSjTXpp6PNC-VhJ-1" value="Authorized?" style="rhombus;whiteSpace=wrap;html=1;" vertex="1" parent="77e6c97f196da883-3">
          <mxGeometry x="40" y="50" width="80" height="80" as="geometry"/>
        </mxCell>
        <mxCell id="EyN7NpSjTXpp6PNC-VhJ-4" value="&lt;font style=&quot;font-size: 11px&quot;&gt;API KEY invalid&lt;/font&gt;" style="rounded=1;whiteSpace=wrap;html=1;shadow=0;labelBackgroundColor=none;strokeWidth=1;fontFamily=Verdana;fontSize=8;align=center;" vertex="1" parent="77e6c97f196da883-3">
          <mxGeometry x="30" y="155" width="100" height="60" as="geometry"/>
        </mxCell>
        <mxCell id="EyN7NpSjTXpp6PNC-VhJ-33" value="Yes" style="text;html=1;strokeColor=none;fillColor=none;align=center;verticalAlign=middle;whiteSpace=wrap;rounded=0;" vertex="1" parent="77e6c97f196da883-3">
          <mxGeometry x="110" y="60" width="40" height="20" as="geometry"/>
        </mxCell>
        <mxCell id="EyN7NpSjTXpp6PNC-VhJ-34" value="No" style="text;html=1;strokeColor=none;fillColor=none;align=center;verticalAlign=middle;whiteSpace=wrap;rounded=0;" vertex="1" parent="77e6c97f196da883-3">
          <mxGeometry x="40" y="130" width="40" height="20" as="geometry"/>
        </mxCell>
        <mxCell id="77e6c97f196da883-4" value="API Endpoint" style="swimlane;html=1;startSize=20;" parent="77e6c97f196da883-1" vertex="1">
          <mxGeometry x="330" y="20" width="160" height="780" as="geometry"/>
        </mxCell>
        <mxCell id="EyN7NpSjTXpp6PNC-VhJ-5" value="&lt;font style=&quot;font-size: 10px&quot;&gt;REQUEST&lt;br&gt;OK&lt;/font&gt;" style="rhombus;whiteSpace=wrap;html=1;" vertex="1" parent="77e6c97f196da883-4">
          <mxGeometry x="40" y="50" width="80" height="80" as="geometry"/>
        </mxCell>
        <mxCell id="EyN7NpSjTXpp6PNC-VhJ-35" value="Yes" style="text;html=1;strokeColor=none;fillColor=none;align=center;verticalAlign=middle;whiteSpace=wrap;rounded=0;" vertex="1" parent="77e6c97f196da883-4">
          <mxGeometry x="110" y="60" width="40" height="20" as="geometry"/>
        </mxCell>
        <mxCell id="EyN7NpSjTXpp6PNC-VhJ-36" value="No" style="text;html=1;strokeColor=none;fillColor=none;align=center;verticalAlign=middle;whiteSpace=wrap;rounded=0;" vertex="1" parent="77e6c97f196da883-4">
          <mxGeometry x="30" y="130" width="40" height="20" as="geometry"/>
        </mxCell>
        <mxCell id="77e6c97f196da883-5" value="Database" style="swimlane;html=1;startSize=20;" parent="77e6c97f196da883-1" vertex="1">
          <mxGeometry x="490" y="20" width="290" height="780" as="geometry"/>
        </mxCell>
        <mxCell id="EyN7NpSjTXpp6PNC-VhJ-24" style="edgeStyle=orthogonalEdgeStyle;rounded=0;orthogonalLoop=1;jettySize=auto;html=1;exitX=0;exitY=0.5;exitDx=0;exitDy=0;entryX=0.5;entryY=0;entryDx=0;entryDy=0;" edge="1" parent="77e6c97f196da883-5" source="EyN7NpSjTXpp6PNC-VhJ-6" target="EyN7NpSjTXpp6PNC-VhJ-19">
          <mxGeometry relative="1" as="geometry"/>
        </mxCell>
        <mxCell id="EyN7NpSjTXpp6PNC-VhJ-25" style="edgeStyle=orthogonalEdgeStyle;rounded=0;orthogonalLoop=1;jettySize=auto;html=1;exitX=1;exitY=0.5;exitDx=0;exitDy=0;entryX=0.5;entryY=0;entryDx=0;entryDy=0;" edge="1" parent="77e6c97f196da883-5" source="EyN7NpSjTXpp6PNC-VhJ-6" target="EyN7NpSjTXpp6PNC-VhJ-18">
          <mxGeometry relative="1" as="geometry"/>
        </mxCell>
        <mxCell id="EyN7NpSjTXpp6PNC-VhJ-6" value="Cached ?" style="rhombus;whiteSpace=wrap;html=1;" vertex="1" parent="77e6c97f196da883-5">
          <mxGeometry x="90" y="170" width="80" height="80" as="geometry"/>
        </mxCell>
        <mxCell id="EyN7NpSjTXpp6PNC-VhJ-23" style="edgeStyle=orthogonalEdgeStyle;rounded=0;orthogonalLoop=1;jettySize=auto;html=1;exitX=0.5;exitY=1;exitDx=0;exitDy=0;entryX=0.5;entryY=0;entryDx=0;entryDy=0;" edge="1" parent="77e6c97f196da883-5" source="EyN7NpSjTXpp6PNC-VhJ-7" target="EyN7NpSjTXpp6PNC-VhJ-6">
          <mxGeometry relative="1" as="geometry"/>
        </mxCell>
        <mxCell id="EyN7NpSjTXpp6PNC-VhJ-7" value="&lt;font style=&quot;font-size: 10px&quot;&gt;GET, POST, PATCH, DELETE&lt;/font&gt;" style="rounded=1;whiteSpace=wrap;html=1;shadow=0;labelBackgroundColor=none;strokeWidth=1;fontFamily=Verdana;fontSize=8;align=center;" vertex="1" parent="77e6c97f196da883-5">
          <mxGeometry x="80" y="60" width="100" height="60" as="geometry"/>
        </mxCell>
        <mxCell id="EyN7NpSjTXpp6PNC-VhJ-26" style="edgeStyle=orthogonalEdgeStyle;rounded=0;orthogonalLoop=1;jettySize=auto;html=1;exitX=0.5;exitY=1;exitDx=0;exitDy=0;entryX=0.5;entryY=0;entryDx=0;entryDy=0;" edge="1" parent="77e6c97f196da883-5" source="EyN7NpSjTXpp6PNC-VhJ-18" target="EyN7NpSjTXpp6PNC-VhJ-20">
          <mxGeometry relative="1" as="geometry"/>
        </mxCell>
        <mxCell id="EyN7NpSjTXpp6PNC-VhJ-29" style="edgeStyle=orthogonalEdgeStyle;rounded=0;orthogonalLoop=1;jettySize=auto;html=1;exitX=1;exitY=0.5;exitDx=0;exitDy=0;entryX=1;entryY=0.5;entryDx=0;entryDy=0;" edge="1" parent="77e6c97f196da883-5" source="EyN7NpSjTXpp6PNC-VhJ-18" target="EyN7NpSjTXpp6PNC-VhJ-21">
          <mxGeometry relative="1" as="geometry"/>
        </mxCell>
        <mxCell id="EyN7NpSjTXpp6PNC-VhJ-18" value="within fressness lifetime" style="rhombus;whiteSpace=wrap;html=1;" vertex="1" parent="77e6c97f196da883-5">
          <mxGeometry x="155" y="300" width="80" height="80" as="geometry"/>
        </mxCell>
        <mxCell id="EyN7NpSjTXpp6PNC-VhJ-19" value="Store in cache" style="rounded=1;whiteSpace=wrap;html=1;" vertex="1" parent="77e6c97f196da883-5">
          <mxGeometry x="10" y="580" width="100" height="50" as="geometry"/>
        </mxCell>
        <mxCell id="EyN7NpSjTXpp6PNC-VhJ-42" style="edgeStyle=orthogonalEdgeStyle;rounded=0;orthogonalLoop=1;jettySize=auto;html=1;exitX=0.5;exitY=1;exitDx=0;exitDy=0;entryX=1;entryY=0.5;entryDx=0;entryDy=0;" edge="1" parent="77e6c97f196da883-5" source="EyN7NpSjTXpp6PNC-VhJ-20" target="EyN7NpSjTXpp6PNC-VhJ-19">
          <mxGeometry relative="1" as="geometry"/>
        </mxCell>
        <mxCell id="EyN7NpSjTXpp6PNC-VhJ-43" style="edgeStyle=orthogonalEdgeStyle;rounded=0;orthogonalLoop=1;jettySize=auto;html=1;exitX=1;exitY=0.5;exitDx=0;exitDy=0;entryX=1;entryY=0.5;entryDx=0;entryDy=0;" edge="1" parent="77e6c97f196da883-5" source="EyN7NpSjTXpp6PNC-VhJ-20" target="EyN7NpSjTXpp6PNC-VhJ-21">
          <mxGeometry relative="1" as="geometry"/>
        </mxCell>
        <mxCell id="EyN7NpSjTXpp6PNC-VhJ-20" value="Revalidated" style="rhombus;whiteSpace=wrap;html=1;" vertex="1" parent="77e6c97f196da883-5">
          <mxGeometry x="155" y="440" width="80" height="80" as="geometry"/>
        </mxCell>
        <mxCell id="EyN7NpSjTXpp6PNC-VhJ-21" value="Log pertinent information" style="rounded=1;whiteSpace=wrap;html=1;" vertex="1" parent="77e6c97f196da883-5">
          <mxGeometry x="95" y="660" width="100" height="50" as="geometry"/>
        </mxCell>
        <mxCell id="EyN7NpSjTXpp6PNC-VhJ-37" value="No" style="text;html=1;strokeColor=none;fillColor=none;align=center;verticalAlign=middle;whiteSpace=wrap;rounded=0;" vertex="1" parent="77e6c97f196da883-5">
          <mxGeometry x="55" y="180" width="40" height="20" as="geometry"/>
        </mxCell>
        <mxCell id="EyN7NpSjTXpp6PNC-VhJ-38" value="No" style="text;html=1;strokeColor=none;fillColor=none;align=center;verticalAlign=middle;whiteSpace=wrap;rounded=0;" vertex="1" parent="77e6c97f196da883-5">
          <mxGeometry x="150" y="380" width="40" height="20" as="geometry"/>
        </mxCell>
        <mxCell id="EyN7NpSjTXpp6PNC-VhJ-39" value="No" style="text;html=1;strokeColor=none;fillColor=none;align=center;verticalAlign=middle;whiteSpace=wrap;rounded=0;" vertex="1" parent="77e6c97f196da883-5">
          <mxGeometry x="140" y="530" width="40" height="20" as="geometry"/>
        </mxCell>
        <mxCell id="EyN7NpSjTXpp6PNC-VhJ-44" value="Yes" style="text;html=1;strokeColor=none;fillColor=none;align=center;verticalAlign=middle;whiteSpace=wrap;rounded=0;" vertex="1" parent="77e6c97f196da883-5">
          <mxGeometry x="160" y="180" width="40" height="20" as="geometry"/>
        </mxCell>
        <mxCell id="EyN7NpSjTXpp6PNC-VhJ-45" value="Yes" style="text;html=1;strokeColor=none;fillColor=none;align=center;verticalAlign=middle;whiteSpace=wrap;rounded=0;" vertex="1" parent="77e6c97f196da883-5">
          <mxGeometry x="235" y="310" width="40" height="20" as="geometry"/>
        </mxCell>
        <mxCell id="EyN7NpSjTXpp6PNC-VhJ-46" value="Yes" style="text;html=1;strokeColor=none;fillColor=none;align=center;verticalAlign=middle;whiteSpace=wrap;rounded=0;" vertex="1" parent="77e6c97f196da883-5">
          <mxGeometry x="210" y="440" width="40" height="20" as="geometry"/>
        </mxCell>
        <mxCell id="EyN7NpSjTXpp6PNC-VhJ-9" style="edgeStyle=orthogonalEdgeStyle;rounded=0;orthogonalLoop=1;jettySize=auto;html=1;exitX=1;exitY=0.5;exitDx=0;exitDy=0;entryX=0;entryY=0.5;entryDx=0;entryDy=0;" edge="1" parent="77e6c97f196da883-1" source="EyN7NpSjTXpp6PNC-VhJ-1" target="EyN7NpSjTXpp6PNC-VhJ-5">
          <mxGeometry relative="1" as="geometry"/>
        </mxCell>
        <mxCell id="EyN7NpSjTXpp6PNC-VhJ-10" style="edgeStyle=orthogonalEdgeStyle;rounded=0;orthogonalLoop=1;jettySize=auto;html=1;exitX=1;exitY=0.5;exitDx=0;exitDy=0;entryX=0;entryY=0.5;entryDx=0;entryDy=0;" edge="1" parent="77e6c97f196da883-1" source="EyN7NpSjTXpp6PNC-VhJ-5" target="EyN7NpSjTXpp6PNC-VhJ-7">
          <mxGeometry relative="1" as="geometry"/>
        </mxCell>
        <mxCell id="EyN7NpSjTXpp6PNC-VhJ-12" style="edgeStyle=orthogonalEdgeStyle;rounded=0;orthogonalLoop=1;jettySize=auto;html=1;exitX=0.5;exitY=1;exitDx=0;exitDy=0;entryX=1;entryY=0.5;entryDx=0;entryDy=0;" edge="1" parent="77e6c97f196da883-1" source="EyN7NpSjTXpp6PNC-VhJ-5" target="77e6c97f196da883-12">
          <mxGeometry relative="1" as="geometry"/>
        </mxCell>
        <mxCell id="EyN7NpSjTXpp6PNC-VhJ-14" style="edgeStyle=orthogonalEdgeStyle;rounded=0;orthogonalLoop=1;jettySize=auto;html=1;exitX=0;exitY=0.5;exitDx=0;exitDy=0;entryX=1;entryY=0.5;entryDx=0;entryDy=0;" edge="1" parent="77e6c97f196da883-1" source="EyN7NpSjTXpp6PNC-VhJ-4" target="77e6c97f196da883-9">
          <mxGeometry relative="1" as="geometry"/>
        </mxCell>
        <mxCell id="EyN7NpSjTXpp6PNC-VhJ-30" style="edgeStyle=orthogonalEdgeStyle;rounded=0;orthogonalLoop=1;jettySize=auto;html=1;exitX=0;exitY=0.5;exitDx=0;exitDy=0;entryX=1;entryY=0.5;entryDx=0;entryDy=0;" edge="1" parent="77e6c97f196da883-1" source="EyN7NpSjTXpp6PNC-VhJ-19" target="77e6c97f196da883-10">
          <mxGeometry relative="1" as="geometry"/>
        </mxCell>
      </root>
    </mxGraphModel>
  </diagram>
</mxfile>
